<svg xmlns="http://www.w3.org/2000/svg" width="800" height="200" viewBox="0 0 800 200">
  <defs>
    <linearGradient id="bg" x1="0%" y1="0%" x2="100%" y2="100%">
      <stop offset="0%" style="stop-color:#0c1222;stop-opacity:1" />
      <stop offset="100%" style="stop-color:#1e293b;stop-opacity:1" />
    </linearGradient>
    <linearGradient id="accent" x1="0%" y1="0%" x2="100%" y2="0%">
      <stop offset="0%" style="stop-color:#a855f7;stop-opacity:1" />
      <stop offset="100%" style="stop-color:#6366f1;stop-opacity:1" />
    </linearGradient>
  </defs>
  <rect width="800" height="200" rx="12" fill="url(#bg)"/>
  <rect x="0" y="188" width="800" height="12" rx="0" fill="url(#accent)" opacity="0.8"/>
  <text x="400" y="95" font-size="48" font-weight="bold" fill="#ffffff" font-family="system-ui, -apple-system, sans-serif" text-anchor="middle">NeuralHive</text>
  <text x="400" y="135" font-size="16" fill="#94a3b8" font-family="system-ui, -apple-system, sans-serif" text-anchor="middle">Multi-Agent Orchestration — Supervisor, Router &amp; Swarm Topologies</text>
  <circle cx="85" cy="50" r="6" fill="#a855f7" opacity="0.4"/><circle cx="115" cy="35" r="3" fill="#6366f1" opacity="0.6"/>
  <circle cx="105" cy="75" r="3" fill="#a855f7" opacity="0.5"/><circle cx="140" cy="55" r="3" fill="#6366f1" opacity="0.4"/>
  <line x1="85" y1="50" x2="115" y2="35" stroke="#a855f7" stroke-width="1" opacity="0.3"/>
  <line x1="85" y1="50" x2="105" y2="75" stroke="#6366f1" stroke-width="1" opacity="0.3"/>
  <line x1="85" y1="50" x2="140" y2="55" stroke="#a855f7" stroke-width="1" opacity="0.3"/>
  <circle cx="690" cy="50" r="6" fill="#6366f1" opacity="0.4"/><circle cx="720" cy="35" r="3" fill="#a855f7" opacity="0.6"/>
  <circle cx="710" cy="75" r="3" fill="#6366f1" opacity="0.5"/><circle cx="745" cy="55" r="3" fill="#a855f7" opacity="0.4"/>
  <line x1="690" y1="50" x2="720" y2="35" stroke="#6366f1" stroke-width="1" opacity="0.3"/>
  <line x1="690" y1="50" x2="710" y2="75" stroke="#a855f7" stroke-width="1" opacity="0.3"/>
  <line x1="690" y1="50" x2="745" y2="55" stroke="#6366f1" stroke-width="1" opacity="0.3"/>
</svg>
